<svg xmlns="http://www.w3.org/2000/svg" viewBox="0 0 65 65" width="65" height="65">
	<style>
		tspan { white-space:pre }
		.shp0 { fill: #ffbc21 } 
		.shp1 { fill: #212121 } 
		.shp2 { fill: #ffffff } 
		.shp3 { fill: #000000 } 
	</style>
	<g id="layer1">
		<path id="rect4405" class="shp0" d="M0,65h65v-65h-65z" />
		<path id="path4407" class="shp1" d="M31.87,2.16c-9.26,0 -16.33,4.58 -16.76,16.76c-0.42,12.18 1.9,18.03 -11.34,32.63c-1.45,1.59 -2.7,3.23 -3.77,4.88v8.57h65v-9.72c-0.89,-1.25 -1.89,-2.5 -3.01,-3.73c-13.82,-15.32 -13.31,-20.41 -13.37,-32.63c-0.06,-12.21 -7.5,-16.76 -16.76,-16.76z" />
		<path id="path4173" class="shp2" d="M32.45,35.69c-13.44,0 -24.33,10.89 -24.33,24.33c0.01,0.98 0.08,1.96 0.21,2.94h48.25c0.13,-0.97 0.19,-1.96 0.2,-2.94c0,-13.44 -10.89,-24.33 -24.33,-24.33z" />
		<g id="g4181">
			<path id="circle4165" class="shp2" d="M43.27,19.22c0,-3.74 -2.34,-6.76 -5.23,-6.76c-2.89,0 -5.23,3.02 -5.23,6.76c0,3.74 2.34,6.76 5.23,6.76c2.89,0 5.23,-3.02 5.23,-6.76z" />
		</g>
		<g id="g4185">
			<path id="circle4187" class="shp2" d="M31.9,19.24c0,-3.92 -2.38,-7.08 -5.33,-7.08c-2.95,0 -5.33,3.16 -5.33,7.08c0,3.92 2.38,7.08 5.33,7.08c2.95,0 5.33,-3.16 5.33,-7.08z" />
		</g>
		<path id="path4403" class="shp1" d="M32.81,24.47c-7.45,0 -14.99,0.79 -17.79,2.38c-0.02,1.46 -0.08,2.86 -0.24,4.26c3.4,5.21 14.89,12.47 17.66,12.36c2.7,-0.11 13.03,-6.84 16.98,-11.96c-0.39,-1.73 -0.58,-3.46 -0.69,-5.3c-3.24,-1.16 -9.55,-1.74 -15.93,-1.74z" />
		<path id="path4150" class="shp0" d="M18.54,29.68c-1.09,3.49 11.34,11.74 13.9,11.63c2.56,-0.1 14.26,-8.15 13.9,-11.63c-0.36,-3.49 -26.7,-3.49 -27.79,0z" />
		<g id="g4324">
			<path id="circle4326" class="shp3" d="M40.28,20.3c0,-1.24 -1,-2.24 -2.24,-2.24c-1.24,0 -2.24,1 -2.24,2.24c0,1.24 1,2.24 2.24,2.24c1.24,0 2.24,-1 2.24,-2.24z" />
		</g>
		<g id="g4328">
			<path id="circle4330" class="shp3" d="M29.51,20.32c0,-1.53 -1.23,-2.76 -2.76,-2.76c-1.53,0 -2.76,1.23 -2.76,2.76c0,1.53 1.23,2.76 2.76,2.76c1.53,0 2.76,-1.23 2.76,-2.76z" />
		</g>
	</g>
</svg>